<?xml version="1.0" encoding="UTF-8" standalone="no"?>
<!-- Created with Inkscape (http://www.inkscape.org/) -->

<svg
   xmlns:dc="http://purl.org/dc/elements/1.1/"
   xmlns:cc="http://creativecommons.org/ns#"
   xmlns:rdf="http://www.w3.org/1999/02/22-rdf-syntax-ns#"
   xmlns:svg="http://www.w3.org/2000/svg"
   xmlns="http://www.w3.org/2000/svg"
   xmlns:xlink="http://www.w3.org/1999/xlink"
   xmlns:sodipodi="http://sodipodi.sourceforge.net/DTD/sodipodi-0.dtd"
   xmlns:inkscape="http://www.inkscape.org/namespaces/inkscape"
   width="1400"
   height="560"
   id="svg2"
   version="1.1"
   inkscape:version="0.91 r13725"
   sodipodi:docname="chrome-tile-marquee.svg"
   inkscape:export-filename="/home/mokush/dev/apunto/artwork/chrome-tile-marquee.png"
   inkscape:export-xdpi="90"
   inkscape:export-ydpi="90">
  <defs
     id="defs4">
    <clipPath
       clipPathUnits="userSpaceOnUse"
       id="clipPath3870">
      <path
         mask="none"
         sodipodi:nodetypes="cccccccc"
         inkscape:connector-curvature="0"
         id="path3872"
         d="M 61.349337,687.7096 -165.71098,914.7699 52.939695,1129.2158 280,902.15544 254.77106,876.92653 69.758977,889.54099 l 0,-201.83139 z"
         style="opacity:0.61702127;fill:url(#linearGradient3874);fill-opacity:1;stroke:none" />
    </clipPath>
    <radialGradient
       inkscape:collect="always"
       xlink:href="#linearGradient3831"
       id="radialGradient3837"
       cx="663.58038"
       cy="187.32571"
       fx="663.58038"
       fy="187.32571"
       r="460"
       gradientTransform="matrix(-0.9103665,0.4138029,-0.43478255,-0.95652173,1349.1277,162.50357)"
       gradientUnits="userSpaceOnUse" />
    <linearGradient
       id="linearGradient3831">
      <stop
         style="stop-color:#2e384a;stop-opacity:1;"
         offset="0"
         id="stop3833" />
      <stop
         style="stop-color:#212834;stop-opacity:1;"
         offset="1"
         id="stop3835" />
    </linearGradient>
    <clipPath
       id="clipPath4592"
       clipPathUnits="userSpaceOnUse">
      <path
         inkscape:connector-curvature="0"
         id="path4594"
         d="m 0,1000 1000,0 L 1000,0 0,0 0,1000 Z" />
    </clipPath>
  </defs>
  <sodipodi:namedview
     id="base"
     pagecolor="#ffffff"
     bordercolor="#666666"
     borderopacity="1.0"
     inkscape:pageopacity="0.0"
     inkscape:pageshadow="2"
     inkscape:zoom="0.35"
     inkscape:cx="1046.5048"
     inkscape:cy="56.754653"
     inkscape:document-units="px"
     inkscape:current-layer="layer1"
     showgrid="false"
     inkscape:window-width="1238"
     inkscape:window-height="800"
     inkscape:window-x="42"
     inkscape:window-y="0"
     inkscape:window-maximized="1"
     showguides="true"
     inkscape:guide-bbox="true"
     fit-margin-top="0"
     fit-margin-left="0"
     fit-margin-right="0"
     fit-margin-bottom="0"
     inkscape:snap-bbox="true">
    <inkscape:grid
       type="xygrid"
       id="grid3012"
       empspacing="5"
       visible="true"
       enabled="true"
       snapvisiblegridlinesonly="true" />
  </sodipodi:namedview>
  <metadata
     id="metadata7">
    <rdf:RDF>
      <cc:Work
         rdf:about="">
        <dc:format>image/svg+xml</dc:format>
        <dc:type
           rdf:resource="http://purl.org/dc/dcmitype/StillImage" />
        <dc:title />
      </cc:Work>
    </rdf:RDF>
  </metadata>
  <g
     inkscape:label="Layer 1"
     inkscape:groupmode="layer"
     id="layer1"
     transform="translate(-63.580357,-237.91394)">
    <rect
       style="fill:#ef4348;fill-opacity:1;fill-rule:nonzero;stroke:none"
       id="rect3906"
       width="1400"
       height="560"
       x="63.580357"
       y="237.91394" />
    <g
       transform="matrix(1.1349907,0,0,-1.1349907,196.08501,1095.5108)"
       id="g4590"
       clip-path="url(#clipPath4592)"
       style="fill:#ffffff">
      <g
         id="g4596"
         transform="translate(353.8824,468.235)"
         style="fill:#f2f2f2">
        <path
           d="m 0,0 c -21.052,0 -38.118,17.066 -38.118,38.118 0,21.051 17.066,38.117 38.118,38.117 21.052,0 38.118,-17.066 38.118,-38.117 C 38.118,17.066 21.052,0 0,0 m 0,88.941 c -28.069,0 -50.824,-22.754 -50.824,-50.823 l 0,-127.059 12.706,0 0,93.46 C -28.805,-6.038 -15.185,-12.706 0,-12.706 c 28.069,0 50.824,22.755 50.824,50.824 0,28.069 -22.755,50.823 -50.824,50.823"
           style="fill:#f2f2f2;fill-opacity:1;fill-rule:nonzero;stroke:none"
           id="path4598"
           inkscape:connector-curvature="0" />
      </g>
      <g
         id="g4600"
         transform="translate(773.1765,468.235)"
         style="fill:#f2f2f2">
        <path
           d="m 0,0 c -21.052,0 -38.118,17.066 -38.118,38.118 0,21.051 17.066,38.117 38.118,38.117 21.052,0 38.118,-17.066 38.118,-38.117 C 38.118,17.066 21.052,0 0,0 m 0,88.941 c -28.069,0 -50.823,-22.754 -50.823,-50.823 0,-28.069 22.754,-50.824 50.823,-50.824 28.069,0 50.824,22.755 50.824,50.824 0,28.069 -22.755,50.823 -50.824,50.823"
           style="fill:#f2f2f2;fill-opacity:1;fill-rule:nonzero;stroke:none"
           id="path4602"
           inkscape:connector-curvature="0" />
      </g>
      <g
         id="g4604"
         transform="translate(735.0587,595.2938)"
         style="fill:#f2f2f2">
        <path
           d="m 0,0 -38.118,0 0,25.412 -12.705,0 0,-25.412 -38.118,0 0,-12.706 38.118,0 0,-127.058 12.705,0 0,127.058 38.118,0 L 0,0 Z"
           style="fill:#f2f2f2;fill-opacity:1;fill-rule:nonzero;stroke:none"
           id="path4606"
           inkscape:connector-curvature="0" />
      </g>
      <g
         id="g4608"
         transform="translate(519.0588,557.1761)"
         style="fill:#f2f2f2">
        <path
           d="m 0,0 0,-50.824 c 0,-21.051 -17.066,-38.117 -38.118,-38.117 -21.051,0 -38.117,17.066 -38.117,38.117 l 0,50.824 -12.706,0 0,-50.824 c 0,-28.069 22.754,-50.823 50.823,-50.823 28.069,0 50.824,22.754 50.824,50.823 L 12.706,0 0,0 Z"
           style="fill:#f2f2f2;fill-opacity:1;fill-rule:nonzero;stroke:none"
           id="path4610"
           inkscape:connector-curvature="0" />
      </g>
      <g
         id="g4612"
         transform="translate(658.8235,506.3528)"
         style="fill:#f2f2f2">
        <path
           d="m 0,0 c 0,28.069 -22.755,50.823 -50.824,50.823 -15.184,0 -28.804,-6.667 -38.117,-17.225 l 0,17.226 -12.706,0 0,-101.647 12.706,0 0,50.823 0,0 c 0,21.052 17.066,38.117 38.117,38.117 21.052,0 38.118,-17.065 38.118,-38.117 l 0,0 0,-50.824 12.706,0 L 0,0 Z"
           style="fill:#f2f2f2;fill-opacity:1;fill-rule:nonzero;stroke:none"
           id="path4614"
           inkscape:connector-curvature="0" />
      </g>
      <g
         id="g4616"
         transform="translate(226.8235,468.235)"
         style="fill:#333333;fill-opacity:1">
        <path
           d="m 0,0 c -21.052,0 -38.118,17.066 -38.118,38.118 0,21.051 17.066,38.117 38.118,38.117 21.052,0 38.118,-17.066 38.118,-38.117 C 38.118,17.066 21.052,0 0,0 m 0,88.941 c -28.069,0 -50.824,-22.754 -50.824,-50.823 0,-28.069 22.755,-50.824 50.824,-50.824 15.185,0 28.805,6.668 38.118,17.225 l 0,-16.519 12.706,0 0,50.824 -0.018,0 C 50.426,66.566 27.832,88.941 0,88.941"
           style="fill:#333333;fill-opacity:1;fill-rule:nonzero;stroke:none"
           id="path4618"
           inkscape:connector-curvature="0" />
      </g>
      <g
         id="g4620"
         transform="translate(212.0681,559.3873)"
         style="fill:#333333;fill-opacity:1">
        <path
           d="m 0,0 c -3.138,6.22 -9.567,10.495 -17.009,10.495 -10.526,0 -19.059,-8.533 -19.059,-19.059 0,-5.192 2.082,-9.893 5.449,-13.33 C -23.383,-11.383 -12.594,-3.509 0,0"
           style="fill:#333333;fill-opacity:1;fill-rule:nonzero;stroke:none"
           id="path4622"
           inkscape:connector-curvature="0" />
      </g>
      <g
         id="g4624"
         transform="translate(272.1978,537.4929)"
         style="fill:#333333;fill-opacity:1">
        <path
           d="m 0,0 c 3.367,3.437 5.449,8.138 5.449,13.33 0,10.526 -8.533,19.059 -19.059,19.059 -7.442,0 -13.871,-4.275 -17.009,-10.495 C -18.024,18.386 -7.236,10.511 0,0"
           style="fill:#333333;fill-opacity:1;fill-rule:nonzero;stroke:none"
           id="path4626"
           inkscape:connector-curvature="0" />
      </g>
      <g
         id="g4628"
         transform="translate(207.5882,534.588)"
         style="fill:#333333;fill-opacity:1">
        <path
           d="M 0,0 19.307,-37.433 37.324,-9.176 19.307,-22.874 0,0 Z"
           style="fill:#333333;fill-opacity:1;fill-rule:nonzero;stroke:none"
           id="path4630"
           inkscape:connector-curvature="0" />
      </g>
    </g>
  </g>
</svg>
